<svg xmlns="http://www.w3.org/2000/svg" viewBox="0 0 24 24"><path fill="#e52225" d="M14.46,0H9.54A6.06,6.06,0,0,0,5.25,1.78L1.78,5.25A6.06,6.06,0,0,0,0,9.54v4.92a6.06,6.06,0,0,0,1.78,4.29l3.47,3.47A6.06,6.06,0,0,0,9.54,24h4.92a6.06,6.06,0,0,0,4.29-1.78l3.47-3.47A6.06,6.06,0,0,0,24,14.46V9.54a6.06,6.06,0,0,0-1.78-4.29L18.75,1.78A6.06,6.06,0,0,0,14.46,0Z"/><path fill="#ce0505" d="M14,2.4H10A4.87,4.87,0,0,0,6.6,3.82L3.82,6.6A4.87,4.87,0,0,0,2.4,10V14A4.87,4.87,0,0,0,3.82,17.4L6.6,20.18A4.87,4.87,0,0,0,10,21.6H14a4.87,4.87,0,0,0,3.44-1.42l2.78-2.78A4.87,4.87,0,0,0,21.6,14V10A4.87,4.87,0,0,0,20.18,6.6L17.4,3.82A4.87,4.87,0,0,0,14,2.4Z"/><path fill="#b90101" d="M13.48,4.78h-3A3.66,3.66,0,0,0,7.94,5.85L5.85,7.94a3.66,3.66,0,0,0-1.07,2.58v3a3.66,3.66,0,0,0,1.07,2.58l2.09,2.09a3.66,3.66,0,0,0,2.58,1.07h3a3.66,3.66,0,0,0,2.58-1.07l2.09-2.09a3.66,3.66,0,0,0,1.07-2.58v-3a3.66,3.66,0,0,0-1.07-2.58L16.06,5.85A3.66,3.66,0,0,0,13.48,4.78Z"/><path fill="#a60000" d="M13,7.16H11a2.45,2.45,0,0,0-1.73.72l-1.4,1.4A2.45,2.45,0,0,0,7.16,11v2a2.45,2.45,0,0,0,.72,1.73l1.4,1.4a2.45,2.45,0,0,0,1.73.72h2a2.45,2.45,0,0,0,1.73-.72l1.4-1.4A2.45,2.45,0,0,0,16.84,13V11a2.45,2.45,0,0,0-.72-1.73l-1.4-1.4A2.45,2.45,0,0,0,13,7.16Z"/><path fill="#fff" d="M16.22,6.6a.9.9,0,0,0-.9.9v3.94a.3.3,0,1,1-.59,0V5.69a.9.9,0,1,0-1.79,0v5.15a.3.3,0,0,1-.3.3.31.31,0,0,1-.3-.3V5.08a.89.89,0,1,0-1.78,0v5.76a.3.3,0,1,1-.6,0V6.29a.89.89,0,1,0-1.78,0v7.57L7,12.19a1.16,1.16,0,0,0-1.57-.43,1.17,1.17,0,0,0-.28,1.6L7.9,17.64a5.05,5.05,0,0,0,4.68,2.28c4.16,0,4.53-3.26,4.53-4.24V7.5A.89.89,0,0,0,16.22,6.6Z"/><polygon fill="#e52225" points="20.9 19.44 5.29 3.83 5.19 3.92 5.1 3.83 3.24 5.68 18.85 21.3 18.95 21.2 19.04 21.3 20.9 19.44"/></svg>