<svg xmlns="http://www.w3.org/2000/svg" viewBox="0 0 18 18"><path opacity="0" d="M1,1H0V0h1V1z M18,17h-1v1h1V17z"/><path fill="#a0a5ab" d="M15.8,4.5l-2.3-2.3C12.7,1.4,11.7,1,10.6,1H7.4C6.3,1,5.3,1.4,4.5,2.2L2.2,4.5C1.4,5.3,1,6.3,1,7.4v3.3
	c0,1.1,0.4,2.1,1.2,2.9l2.3,2.3C5.3,16.6,6.3,17,7.4,17h3.3c1.1,0,2.1-0.4,2.9-1.2l2.3-2.3c0.8-0.8,1.2-1.8,1.2-2.9V7.4
	C17,6.3,16.6,5.3,15.8,4.5z M8.5,2.8c0.4,0,0.7,0.3,0.7,0.7v4.5c0,0.1,0.1,0.2,0.2,0.2s0.2-0.1,0.2-0.2V4c0-0.4,0.3-0.7,0.7-0.7
	c0.4,0,0.7,0.3,0.7,0.7v4.5c0,0.1,0.1,0.2,0.2,0.2c0.1,0,0.2-0.1,0.2-0.2V5.4c0-0.4,0.3-0.7,0.7-0.7c0.4,0,0.7,0.3,0.7,0.7
	c0,0,0,5.6,0,6.4c0,0.1,0,0.1,0,0.2L7.8,6.8V3.6C7.8,3.2,8.1,2.8,8.5,2.8z M6.6,3.8c0.4,0,0.7,0.3,0.7,0.7v1.9L5.9,4.9V4.5
	C5.9,4.1,6.2,3.8,6.6,3.8z M9.4,15.2c-2,0-3.1-0.8-3.7-1.8C5,12.4,3.5,10,3.5,10C3.2,9.6,3.3,9,3.7,8.8c0.4-0.3,1-0.1,1.2,0.3l1,1.3
	V7.5l6.4,6.4C11.8,14.6,10.9,15.2,9.4,15.2z"/></svg>
