<svg 
 xmlns="http://www.w3.org/2000/svg"
 xmlns:xlink="http://www.w3.org/1999/xlink"
 width="0.25in" height="0.25in">
<path fill-rule="evenodd"  fill="rgb(255, 255, 255)"
 d="M16.523,8.670 L13.493,11.700 C13.310,11.881 13.016,11.881 12.835,11.700 L10.979,9.844 L12.679,8.143 L13.194,8.659 L14.854,6.998 C15.903,5.949 15.903,4.249 14.854,3.200 L14.798,3.144 C13.750,2.095 12.050,2.095 11.001,3.144 L9.341,4.805 L9.859,5.322 L8.159,7.023 L6.303,5.166 C6.122,4.983 6.122,4.689 6.303,4.508 L9.330,1.477 C10.283,0.524 11.550,-0.000 12.898,-0.000 C14.245,-0.000 15.512,0.524 16.465,1.477 L16.523,1.533 C17.476,2.486 18.000,3.754 18.000,5.101 C18.000,6.449 17.476,7.717 16.523,8.670 ZM7.519,12.057 L7.025,12.550 C6.809,12.767 6.523,12.876 6.238,12.876 C5.952,12.876 5.669,12.769 5.450,12.550 C5.015,12.115 5.015,11.408 5.450,10.973 L5.943,10.480 L7.581,8.842 L8.779,7.643 L10.479,5.943 L10.974,5.450 C11.191,5.233 11.476,5.124 11.762,5.124 C12.047,5.124 12.331,5.231 12.550,5.450 C12.985,5.885 12.985,6.592 12.547,7.027 L12.054,7.520 L10.354,9.221 L9.156,10.419 L7.519,12.057 ZM5.321,9.855 L4.806,9.339 L3.146,10.999 C2.097,12.048 2.097,13.749 3.146,14.798 L3.202,14.853 C4.250,15.902 5.950,15.902 6.999,14.853 L8.659,13.193 L8.143,12.678 L9.781,11.040 L11.637,12.896 C11.818,13.079 11.818,13.374 11.637,13.555 L8.670,16.523 C7.717,17.476 6.450,18.000 5.102,18.000 C3.755,18.000 2.488,17.476 1.535,16.523 L1.477,16.465 C0.524,15.512 -0.000,14.244 -0.000,12.896 C-0.000,11.548 0.524,10.281 1.477,9.328 L4.444,6.360 C4.627,6.179 4.922,6.179 5.102,6.360 L6.959,8.217 L5.321,9.855 Z"/>
</svg>