<?xml version="1.0" encoding="utf-8"?>
<!-- Generator: Adobe Illustrator 17.0.1, SVG Export Plug-In . SVG Version: 6.00 Build 0)  -->
<!DOCTYPE svg PUBLIC "-//W3C//DTD SVG 1.1//EN" "http://www.w3.org/Graphics/SVG/1.1/DTD/svg11.dtd">
<svg version="1.1" id="Layer_1" xmlns="http://www.w3.org/2000/svg" xmlns:xlink="http://www.w3.org/1999/xlink" x="0px" y="0px"
	 width="347px" height="347px" viewBox="0 0 347 347" enable-background="new 0 0 347 347" xml:space="preserve">
<path fill-rule="evenodd" clip-rule="evenodd" fill="#2196F3" d="M173.502,347C77.681,347,0,269.32,0,173.501
	c0-32.863,9.139-63.589,25.009-89.782c6.713-9.344,21.283-2.381,13.228,11.087c-13.479,23.118-21.209,50.003-21.209,78.694
	c0,86.417,70.056,156.473,156.474,156.473c86.416,0,156.47-70.056,156.47-156.473c0-86.419-70.054-156.473-156.47-156.473
	c-22.48,0-43.848,4.749-63.169,13.284C95.535,36.393,90.324,21,100.792,15.937C122.909,5.715,147.536,0,173.502,0
	C269.321,0,347,77.676,347,173.501C347,269.32,269.321,347,173.502,347L173.502,347z"/>
<path fill="#2196F3" d="M83.846,80.636c-0.001-0.472-0.006-3.305-0.006-9.583c0-8.338,0-19.039,0-19.039l-0.004,0.005
	c0-0.046,0.004-0.092,0.004-0.138c0-6.444-3.992-12.111-10.031-15.397c0,0,0.003-0.003,0.003-0.003l-0.254-0.13
	c-0.197-0.104-0.396-0.207-0.597-0.306L5.425,1.424L5.424,1.425C4.941,1.143,4.381,0.978,3.782,0.978
	c-1.812,0-3.282,1.482-3.282,3.311c0,0.94,0.389,1.786,1.012,2.389L1.512,6.68c0,0,0.019,0.017,0.048,0.042
	c0.061,0.057,0.123,0.112,0.188,0.164c2.637,2.298,27.182,23.683,42.381,36.772c7.723,6.653,8.488,12.258,8.488,17.08
	c0,0.004,0.003,0.003,0.004,0.006c0.062,6.436,4.373,12.033,10.735,14.983l-0.021,0.024l15.69,7.891l0.001,0
	c0.46,0.247,0.984,0.389,1.542,0.389c1.813,0,3.283-1.482,3.283-3.311C83.85,80.69,83.847,80.663,83.846,80.636z"/>
<path fill="#2196F3" d="M243.076,159.918c1.215-3.382,0.261-8.224-2.131-10.817c-2.393-2.594-5.317-1.955-6.532,1.425
	c-1.215,3.38-0.26,8.222,2.131,10.815C238.937,163.935,241.861,163.298,243.076,159.918z"/>
<path fill="#2196F3" d="M134.449,104.299v19.738c-16.634-10.604-39.054-24.88-49.259-31.306c-2.835-1.551-5.347-0.591-5.046,2.492
	c0,2.153,0,7.7,0,9.494c0,0.359,0,0.581,0,0.581v87.166l0.001,0.001c0,0.47,0,0.916,0,1.303c0,6.089,2.531,9.178,5.112,11.176
	c14.046,9.387,58,38.543,72.006,47.33c2.826,1.541,5.157,1.176,5.157-2.024c0-2.565,0-19.688,0-27.353
	c12.817,8.379,33.742,22.008,45.145,29.162c2.828,1.542,5.03,1.096,5.03-2.474c0-0.555,0-1.249,0-1.992l0.028,0.015
	c0,0,0-11.111,0-26.137c10.938,7.615,32.796,22.715,45.336,30.583c2.828,1.542,5.174,0.446,5.174-3.429c0-5.32,0-78.127,0-101.423
	c0-6.577-1.145-9.97-4.719-12.245c-3.574-2.275-49.245-31.351-66.512-42.225c-2.835-1.551-5.347-0.591-5.046,2.492
	c0,1.493,0,4.29,0,6.387v2.688V123c-15.996-10.275-37.288-23.925-47.359-30.268c-2.837-1.551-5.349-0.591-5.048,2.492
	c0,1.072,0,2.817,0,4.492L134.449,104.299L134.449,104.299z M145.435,111.329l55.203,35.325v87.143l-6.796-4.405
	c-0.918-29.913-0.135-31.707-23.844-44.491c-3.085-1.664-5.57-2.181-7.578-1.849c0-12.802,0-24.596,0.001-31.85
	c0-2.724-0.198-9.845-4.803-12.856c-1.44-1.005-4.194-2.432-5.841-3.257c-1.583-1.01-3.749-2.392-6.342-4.046V111.329
	L145.435,111.329z M107.42,153.3c0-6.967,0-18.211-0.001-30.65l7.015,4.463v19.63C111.396,147.866,109.077,150.179,107.42,153.3z
	 M119.509,156.383c5.658-0.37,9.513,6.183,10.422,15.609c0.907,9.426-2.04,18.282-7.126,18.579
	c-3.801,0.222-9.513-6.183-10.422-15.609C111.474,165.537,113.516,156.774,119.509,156.383z M137.815,171.114
	c-1.477-13.011-7.066-22.614-15.396-24.706c0-3.314,0-7.944,0-14.216l28.016,17.823v35.754l-12.327-8.145
	C138.156,175.499,138.065,173.317,137.815,171.114z M99.433,117.569v34.877l-8.305-5.487v-34.673L99.433,117.569z M91.128,194.763
	v-35.895c9.268,6.242,2.001,1.661,13.069,8.602c-0.088,2.713,0.036,5.548,0.363,8.422c1.724,15.168,12.546,25.473,19.752,25.115
	c5.501-0.273,9.678-5.035,11.934-11.888c6.202,4.256,6.75,4.869,14.189,9.602v34.261L91.128,194.763z M197.841,111.273
	l53.306,33.844v70.541c-3.74-11.254-8.198-24.667-11.107-33.42c-2.684-8.077-6.532-6.031-7.925-4.933l-0.004-0.012l-0.121,0.113
	c-0.257,0.214-0.405,0.373-0.405,0.373l0.001,0.004l-8.151,7.612l-2.663-7.773l-0.013,0.008c-0.766-1.926-2.574-3.872-6.756-0.346
	c-0.492,0.415-0.946,0.795-1.38,1.156c0-12.409,0-23.52,0-30.237c0-2.725-0.196-8.846-4.801-11.856
	c-0.72-0.502-1.768-1.109-2.843-1.694c-1.597-1.027-4.062-2.614-7.139-4.593L197.841,111.273L197.841,111.273z"/>
<path fill="#2196F3" d="M178.197,183.081c5.843-0.279,9.23-8.59,8.186-17.436c-1.044-8.846-5.472-14.995-11.975-14.648
	c-6.884,0.368-9.231,8.59-8.186,17.436C167.266,177.279,173.828,183.291,178.197,183.081z"/>
</svg>
