<svg xmlns="http://www.w3.org/2000/svg" width="33" height="33" viewBox="0 0 33 33">
  <metadata><?xpacket begin="﻿" id="W5M0MpCehiHzreSzNTczkc9d"?>
<x:xmpmeta xmlns:x="adobe:ns:meta/" x:xmptk="Adobe XMP Core 5.6-c138 79.159824, 2016/09/14-01:09:01        ">
   <rdf:RDF xmlns:rdf="http://www.w3.org/1999/02/22-rdf-syntax-ns#">
      <rdf:Description rdf:about=""/>
   </rdf:RDF>
</x:xmpmeta>
                                                                                                    
                                                                                                    
                                                                                                    
                                                                                                    
                                                                                                    
                                                                                                    
                                                                                                    
                                                                                                    
                                                                                                    
                                                                                                    
                                                                                                    
                                                                                                    
                                                                                                    
                                                                                                    
                                                                                                    
                                                                                                    
                                                                                                    
                                                                                                    
                                                                                                    
                                                                                                    
                           
<?xpacket end="w"?></metadata>
<defs>
    <style>
      .cls-1 {
        fill: #0084ff;
      }

      .cls-2 {
        fill: #fff;
        fill-rule: evenodd;
      }
    </style>
  </defs>
  <rect id="Rounded_Rectangle_5_copy_2" data-name="Rounded Rectangle 5 copy 2" class="cls-1" width="33" height="33" rx="3" ry="3"/>
  <path class="cls-2" d="M1210.09,739.378a19.508,19.508,0,0,0-3.53-2.259,0.114,0.114,0,0,1-.07-0.1v-2.386a1.094,1.094,0,0,0,.5-0.927v-2.476a2.231,2.231,0,0,0-2.23-2.231h-0.54a2.231,2.231,0,0,0-2.23,2.231v2.476a1.089,1.089,0,0,0,.5.927v2.386a0.124,0.124,0,0,1-.06.1,19.753,19.753,0,0,0-3.54,2.259,1.194,1.194,0,0,0-.44.928V742h12.08v-1.694A1.194,1.194,0,0,0,1210.09,739.378Zm5.53-1.671a15.9,15.9,0,0,0-2.97-1.9,0.092,0.092,0,0,1-.05-0.085v-2a0.943,0.943,0,0,0,.42-0.782v-2.075a1.872,1.872,0,0,0-1.87-1.869h-0.45a1.872,1.872,0,0,0-1.87,1.869v2.075a0.949,0.949,0,0,0,.42.782v2a0.1,0.1,0,0,1-.05.085,15.1,15.1,0,0,0-1.52.856,20.042,20.042,0,0,1,3.01,2,2.117,2.117,0,0,1,.73,1.234H1216v-1.422A1.057,1.057,0,0,0,1215.62,737.707Zm-15.82-1.9a0.086,0.086,0,0,1-.06-0.085v-2a0.943,0.943,0,0,0,.42-0.782v-2.075a1.872,1.872,0,0,0-1.87-1.869h-0.45a1.874,1.874,0,0,0-1.88,1.869v2.075a0.949,0.949,0,0,0,.42.782v2a0.082,0.082,0,0,1-.05.085,16.3,16.3,0,0,0-2.96,1.9,1.019,1.019,0,0,0-.37.777v1.422h4.58a2.117,2.117,0,0,1,.73-1.234,20.042,20.042,0,0,1,3.01-2A16.365,16.365,0,0,0,1199.8,735.811Z" transform="translate(-1188 -719)"/>
</svg>
